<svg xmlns="http://www.w3.org/2000/svg" viewbox="0 0 1013 500" width="1013" height="500"><defs></defs><g>
<rect fill="#ffffff" x="0" y="0" width="500" height="500"/>
<g>
	<g>
		<path d="M250.000000,0.000000C387.946194,0.000000 500.000000,112.053806 500.000000,250.000000 C500.000000,387.946194 387.946194,500.000000 250.000000,500.000000 C112.053806,500.000000 0.000000,387.946194 0.000000,250.000000 C0.000000,112.053806 112.053806,0.000000 250.000000,0.000000 Z" transform="" fill="#d4ebf8" stroke="#1f509a" stroke-width="20"/>
		<path d="M250.000000,250.000000C250.000000,250.000000 250.000000,65.866896 250.000000,65.866896 " transform="matrix(1,0,0,1,0,0)" fill="none" stroke="#1f509a" stroke-width="20" stroke-linecap="round"/>
		<path d="M250.000000,250.000000C250.000000,250.000000 327.444755,327.444755 327.444755,327.444755 " transform="" fill="none" stroke="#1f509a" stroke-width="20" stroke-linecap="round"/>
		<path d="M1012.000000,0.000000C1012.000000,0.000000 1013.000000,0.000000 1013.000000,0.000000 " transform="" fill="none" stroke="#000000" stroke-width="2"/>
	</g>
</g></g></svg>